<?xml version="1.0" encoding="UTF-8" standalone="no"?>
<svg
   xmlns:dc="http://purl.org/dc/elements/1.1/"
   xmlns:cc="http://creativecommons.org/ns#"
   xmlns:rdf="http://www.w3.org/1999/02/22-rdf-syntax-ns#"
   xmlns:svg="http://www.w3.org/2000/svg"
   xmlns="http://www.w3.org/2000/svg"
   xmlns:sodipodi="http://sodipodi.sourceforge.net/DTD/sodipodi-0.dtd"
   xmlns:inkscape="http://www.inkscape.org/namespaces/inkscape"
   sodipodi:docname="dummy.svg"
   inkscape:version="1.0 (4035a4fb49, 2020-05-01)"
   id="svg8"
   version="1.1"
   viewBox="0 0 177.14108 9.6944656"
   height="9.6944656mm"
   width="177.14108mm">
  <defs
     id="defs2" />
  <sodipodi:namedview
     inkscape:window-maximized="1"
     inkscape:window-y="-9"
     inkscape:window-x="2551"
     inkscape:window-height="1361"
     inkscape:window-width="2560"
     fit-margin-bottom="0"
     fit-margin-right="0"
     fit-margin-left="0"
     fit-margin-top="0"
     showgrid="false"
     inkscape:document-rotation="0"
     inkscape:current-layer="layer1"
     inkscape:document-units="mm"
     inkscape:cy="91.650139"
     inkscape:cx="249.08794"
     inkscape:zoom="1.4"
     inkscape:pageshadow="2"
     inkscape:pageopacity="0.0"
     borderopacity="1.0"
     bordercolor="#666666"
     pagecolor="#ffffff"
     id="base" />
  <metadata
     id="metadata5">
    <rdf:RDF>
      <cc:Work
         rdf:about="">
        <dc:format>image/svg+xml</dc:format>
        <dc:type
           rdf:resource="http://purl.org/dc/dcmitype/StillImage" />
        <dc:title></dc:title>
      </cc:Work>
    </rdf:RDF>
  </metadata>
  <g
     transform="translate(-50.107774,-94.048694)"
     id="layer1"
     inkscape:groupmode="layer"
     inkscape:label="Ebene 1">
    <g
       style="font-size:10.5833px;line-height:1.25;font-family:Bahnschrift;-inkscape-font-specification:Bahnschrift;letter-spacing:0px;word-spacing:0px;stroke-width:0.264583"
       id="text835"
       aria-label="Move along folks, nothing to see here.">
      <path
         id="path837"
         style="stroke-width:0.264583"
         d="m 55.507936,94.048694 h 0.987017 v 7.513726 h -1.028358 v -5.627542 l 0.05168,0.330728 -1.85001,4.252954 h -0.733803 l -1.85001,-4.149601 0.05168,-0.434081 v 5.627542 h -1.028358 v -7.513726 h 0.987017 l 2.206576,4.960922 z" />
      <path
         id="path839"
         style="stroke-width:0.264583"
         d="m 60.308661,101.63994 q -0.69763,0 -1.193722,-0.27389 -0.496092,-0.27388 -0.759641,-0.79581 -0.258381,-0.5271 -0.258381,-1.266069 v -0.873329 q 0,-0.728635 0.258381,-1.245398 0.263549,-0.52193 0.759641,-0.790647 0.496092,-0.273884 1.193722,-0.273884 0.697629,0 1.193722,0.273884 0.496092,0.268717 0.754473,0.790647 0.263549,0.516763 0.263549,1.245398 v 0.888832 q 0,0.733806 -0.263549,1.255736 -0.258381,0.51676 -0.754473,0.79064 -0.496093,0.27389 -1.193722,0.27389 z m 0,-1.00252 q 0.552936,0 0.852658,-0.34623 0.30489,-0.346233 0.30489,-0.971516 v -0.888832 q 0,-0.625283 -0.30489,-0.966346 -0.299722,-0.341064 -0.852658,-0.341064 -0.552936,0 -0.857826,0.341064 -0.299723,0.341063 -0.299723,0.966346 v 0.888832 q 0,0.625283 0.299723,0.971516 0.30489,0.34623 0.857826,0.34623 z" />
      <path
         id="path841"
         style="stroke-width:0.264583"
         d="m 66.969732,96.198427 h 1.100705 l -2.015375,5.363993 h -0.795814 l -2.015375,-5.363993 h 1.100705 l 1.312577,3.829213 z" />
      <path
         id="path843"
         style="stroke-width:0.264583"
         d="m 71.196852,101.63994 q -0.744139,0 -1.271237,-0.27905 -0.527097,-0.27906 -0.806149,-0.81649 -0.273885,-0.5426 -0.273885,-1.307408 v -0.604613 q 0,-0.795814 0.263549,-1.359086 0.268717,-0.563271 0.775144,-0.857826 0.506428,-0.294554 1.21956,-0.294554 0.671792,0 1.147214,0.335895 0.475421,0.335896 0.723467,0.971514 0.253214,0.635618 0.253214,1.52445 v 0.351399 H 69.61039 V 98.45668 h 2.614819 v 0 q -0.04651,-0.656289 -0.341063,-1.018022 -0.289387,-0.366902 -0.780312,-0.366902 -0.599444,0 -0.930172,0.39274 -0.325561,0.392739 -0.325561,1.111039 v 0.682127 q 0,0.666624 0.351399,1.023188 0.351398,0.35657 0.997352,0.35657 0.320393,0 0.635618,-0.12919 0.315225,-0.12919 0.563271,-0.36174 v 0 l 0.692462,0.69247 v 0 q -0.397907,0.3824 -0.893999,0.59427 -0.496093,0.20671 -0.997352,0.20671 z" />
      <path
         id="path845"
         style="stroke-width:0.264583"
         d="m 80.565758,98.162125 q 0,-0.527098 -0.284219,-0.816485 -0.279052,-0.294554 -0.795815,-0.294554 -0.320393,0 -0.63045,0.09818 -0.30489,0.09819 -0.542601,0.273885 l -0.769976,-0.527098 q 0.30489,-0.366902 0.800982,-0.568439 0.501259,-0.206705 1.111039,-0.206705 0.666624,0 1.142046,0.237711 0.475422,0.232543 0.723468,0.682126 0.248046,0.444416 0.248046,1.074867 v 3.446807 h -1.00252 z m -1.312577,3.477815 q -0.992184,0 -1.483109,-0.40824 -0.490924,-0.41341 -0.490924,-1.25057 0,-0.795815 0.449583,-1.193722 0.449584,-0.397907 1.359086,-0.397907 h 1.52445 l 0.07235,0.847491 h -1.591629 q -0.413411,0 -0.620116,0.186034 -0.201537,0.180867 -0.201537,0.558104 0,0.40824 0.268716,0.60461 0.273885,0.19637 0.826821,0.19637 0.604612,0 0.899167,-0.12919 0.299722,-0.12919 0.299722,-0.40307 l 0.10852,0.75447 q -0.139526,0.21704 -0.346231,0.35657 -0.201537,0.13952 -0.470254,0.2067 -0.268716,0.0724 -0.604612,0.0724 z" />
      <path
         id="path847"
         style="stroke-width:0.264583"
         d="m 84.234772,100.1775 q 0,0.19637 0.08268,0.30489 0.08785,0.10335 0.242879,0.10335 h 0.496092 v 1.00252 H 84.43631 q -0.599445,0 -0.930173,-0.37207 -0.325561,-0.37207 -0.325561,-1.04903 v -6.118466 h 1.054196 z" />
      <path
         id="path849"
         style="stroke-width:0.264583"
         d="m 88.296526,101.63994 q -0.697629,0 -1.193721,-0.27389 -0.496093,-0.27388 -0.759642,-0.79581 -0.258381,-0.5271 -0.258381,-1.266069 v -0.873329 q 0,-0.728635 0.258381,-1.245398 0.263549,-0.52193 0.759642,-0.790647 0.496092,-0.273884 1.193721,-0.273884 0.69763,0 1.193722,0.273884 0.496092,0.268717 0.754474,0.790647 0.263549,0.516763 0.263549,1.245398 v 0.888832 q 0,0.733806 -0.263549,1.255736 -0.258382,0.51676 -0.754474,0.79064 -0.496092,0.27389 -1.193722,0.27389 z m 0,-1.00252 q 0.552936,0 0.852659,-0.34623 0.30489,-0.346233 0.30489,-0.971516 v -0.888832 q 0,-0.625283 -0.30489,-0.966346 -0.299723,-0.341064 -0.852659,-0.341064 -0.552936,0 -0.857826,0.341064 -0.299722,0.341063 -0.299722,0.966346 v 0.888832 q 0,0.625283 0.299722,0.971516 0.30489,0.34623 0.857826,0.34623 z" />
      <path
         id="path851"
         style="stroke-width:0.264583"
         d="m 92.006885,96.198427 h 1.054196 v 5.363993 h -1.054196 z m 3.255605,2.113559 q 0,-0.568438 -0.294554,-0.878496 -0.294555,-0.310058 -0.826821,-0.310058 -0.516762,0 -0.800982,0.273885 -0.279052,0.273884 -0.279052,0.769976 l -0.10852,-1.033525 q 0.248046,-0.485757 0.645953,-0.749306 0.403075,-0.263549 0.888832,-0.263549 0.873329,0 1.348751,0.573606 0.480589,0.568439 0.480589,1.6123 v 3.255601 H 95.26249 Z" />
      <path
         id="path853"
         style="stroke-width:0.264583"
         d="m 99.716982,103.74316 q -0.604613,0 -1.085202,-0.22737 -0.475421,-0.22221 -0.73897,-0.63045 v 0 l 0.713132,-0.64596 v 0 q 0.206705,0.28422 0.490925,0.43925 0.289387,0.15503 0.604612,0.15503 0.604611,0 0.935341,-0.3359 0.33073,-0.33072 0.33073,-0.9405 v -5.358833 h 1.05419 v 5.203803 q 0,0.73897 -0.27388,1.26607 -0.26872,0.52709 -0.78548,0.80098 -0.51676,0.27388 -1.245398,0.27388 z m -0.09819,-2.08772 q -0.58911,0 -1.007687,-0.25321 -0.41341,-0.25838 -0.630451,-0.74931 -0.21704,-0.49092 -0.21704,-1.178218 v -1.183386 q 0,-0.692462 0.211873,-1.183387 0.211872,-0.490924 0.614947,-0.744138 0.408243,-0.258381 0.976682,-0.258381 0.475424,0 0.868164,0.248046 0.39791,0.248046 0.64079,0.69763 l -0.10852,1.095536 q 0,-0.341063 -0.12404,-0.583941 -0.12402,-0.242879 -0.36172,-0.366902 -0.23254,-0.129191 -0.568443,-0.129191 -0.521931,0 -0.811318,0.325561 -0.284219,0.32556 -0.284219,0.91467 v 1.167883 q 0,0.583938 0.284219,0.904338 0.289387,0.31522 0.811318,0.31522 0.335903,0 0.568443,-0.12919 0.23771,-0.13436 0.36172,-0.3824 0.12404,-0.248049 0.12404,-0.59428 l 0.0723,1.13171 q -0.16019,0.39791 -0.52709,0.66662 -0.36174,0.26872 -0.894008,0.26872 z" />
      <path
         id="path855"
         style="stroke-width:0.264583"
         d="m 106.63127,95.469792 q 0,-0.713133 0.32556,-1.064531 0.33073,-0.356567 1.01285,-0.356567 h 0.77515 v 1.00252 h -0.75448 q -0.14986,0 -0.22737,0.113688 -0.0775,0.113688 -0.0775,0.294554 v 6.102964 h -1.05419 z m -0.56844,0.728635 h 2.682 v 0.899167 h -2.682 z" />
      <path
         id="path857"
         style="stroke-width:0.264583"
         d="m 111.73688,101.63994 q -0.69763,0 -1.19372,-0.27389 -0.49609,-0.27388 -0.75964,-0.79581 -0.25838,-0.5271 -0.25838,-1.266069 v -0.873329 q 0,-0.728635 0.25838,-1.245398 0.26355,-0.52193 0.75964,-0.790647 0.49609,-0.273884 1.19372,-0.273884 0.69763,0 1.19373,0.273884 0.49609,0.268717 0.75447,0.790647 0.26355,0.516763 0.26355,1.245398 v 0.888832 q 0,0.733806 -0.26355,1.255736 -0.25838,0.51676 -0.75447,0.79064 -0.4961,0.27389 -1.19373,0.27389 z m 0,-1.00252 q 0.55294,0 0.85266,-0.34623 0.30489,-0.346233 0.30489,-0.971516 v -0.888832 q 0,-0.625283 -0.30489,-0.966346 -0.29972,-0.341064 -0.85266,-0.341064 -0.55293,0 -0.85782,0.341064 -0.29972,0.341063 -0.29972,0.966346 v 0.888832 q 0,0.625283 0.29972,0.971516 0.30489,0.34623 0.85782,0.34623 z" />
      <path
         id="path859"
         style="stroke-width:0.264583"
         d="m 116.50143,100.1775 q 0,0.19637 0.0827,0.30489 0.0879,0.10335 0.24288,0.10335 h 0.49609 v 1.00252 h -0.62012 q -0.59944,0 -0.93017,-0.37207 -0.32556,-0.37207 -0.32556,-1.04903 v -6.118466 h 1.05419 z" />
      <path
         id="path861"
         style="stroke-width:0.264583"
         d="m 118.96122,99.526379 2.75952,-3.327952 h 1.24023 l -4.06692,4.578513 z m -0.45475,-5.477685 h 1.0542 v 7.513726 h -1.0542 z m 1.70015,4.418321 0.67696,-0.702797 2.34094,3.798202 h -1.14722 z" />
      <path
         id="path863"
         style="stroke-width:0.264583"
         d="m 126.0047,101.63994 q -0.47542,0 -0.894,-0.093 -0.41341,-0.093 -0.77514,-0.27905 -0.36174,-0.18604 -0.66663,-0.46509 v 0 l 0.62529,-0.76997 v 0 q 0.43408,0.33072 0.86299,0.49609 0.42891,0.16536 0.84749,0.16536 0.62528,0 0.93534,-0.1912 0.31523,-0.19637 0.31523,-0.583942 0,-0.258381 -0.17054,-0.387572 -0.17053,-0.12919 -0.42374,-0.170531 -0.25322,-0.04651 -0.71313,-0.08268 -0.0413,0 -0.0879,0 -0.0465,-0.0052 -0.0879,-0.01034 -0.0207,0 -0.0413,0 -0.0207,-0.0052 -0.0413,-0.0052 -0.52193,-0.04134 -0.88366,-0.149861 -0.36173,-0.113688 -0.60461,-0.418578 -0.23771,-0.30489 -0.23771,-0.873329 0,-0.568439 0.23254,-0.945676 0.23254,-0.377237 0.69246,-0.563271 0.45992,-0.191202 1.15238,-0.191202 0.41858,0 0.79582,0.07751 0.3824,0.07752 0.72863,0.232543 0.34623,0.149861 0.66663,0.382405 v 0 l -0.63562,0.769976 v 0 q -0.40308,-0.258381 -0.79582,-0.387572 -0.38757,-0.129191 -0.75964,-0.129191 -0.53743,0 -0.80615,0.186035 -0.26871,0.180867 -0.26871,0.547768 0,0.217041 0.14986,0.325561 0.15503,0.10852 0.38757,0.144693 0.23254,0.03617 0.66146,0.06201 0.031,0.0052 0.062,0.0052 0.0362,0 0.0723,0.0052 0.0155,0 0.031,0 0.0155,0 0.031,0.0052 0.56327,0.03617 0.95601,0.149861 0.3979,0.113688 0.66662,0.449584 0.26872,0.335895 0.26872,0.971513 0,0.578776 -0.24805,0.961186 -0.24804,0.37723 -0.7493,0.56844 -0.4961,0.1912 -1.25057,0.1912 z" />
      <path
         id="path865"
         style="stroke-width:0.264583"
         d="m 129.42567,100.45655 h 1.10587 v 1.67431 l -1.10587,1.14722 z" />
      <path
         id="path867"
         style="stroke-width:0.264583"
         d="m 134.85685,96.198427 h 1.05419 v 5.363993 h -1.05419 z m 3.2556,2.113559 q 0,-0.568438 -0.29455,-0.878496 -0.29456,-0.310058 -0.82682,-0.310058 -0.51677,0 -0.80099,0.273885 -0.27905,0.273884 -0.27905,0.769976 l -0.10852,-1.033525 q 0.24805,-0.485757 0.64595,-0.749306 0.40308,-0.263549 0.88884,-0.263549 0.87333,0 1.34875,0.573606 0.48059,0.568439 0.48059,1.6123 v 3.255601 h -1.0542 z" />
      <path
         id="path869"
         style="stroke-width:0.264583"
         d="m 142.82533,101.63994 q -0.69763,0 -1.19372,-0.27389 -0.4961,-0.27388 -0.75965,-0.79581 -0.25838,-0.5271 -0.25838,-1.266069 v -0.873329 q 0,-0.728635 0.25838,-1.245398 0.26355,-0.52193 0.75965,-0.790647 0.49609,-0.273884 1.19372,-0.273884 0.69763,0 1.19372,0.273884 0.49609,0.268717 0.75447,0.790647 0.26355,0.516763 0.26355,1.245398 v 0.888832 q 0,0.733806 -0.26355,1.255736 -0.25838,0.51676 -0.75447,0.79064 -0.49609,0.27389 -1.19372,0.27389 z m 0,-1.00252 q 0.55293,0 0.85266,-0.34623 0.30489,-0.346233 0.30489,-0.971516 v -0.888832 q 0,-0.625283 -0.30489,-0.966346 -0.29973,-0.341064 -0.85266,-0.341064 -0.55294,0 -0.85783,0.341064 -0.29972,0.341063 -0.29972,0.966346 v 0.888832 q 0,0.625283 0.29972,0.971516 0.30489,0.34623 0.85783,0.34623 z" />
      <path
         id="path871"
         style="stroke-width:0.264583"
         d="m 147.93094,101.58826 q -0.65112,0 -0.95601,-0.35656 -0.29973,-0.36174 -0.29973,-1.06454 v -5.529356 h 1.0542 v 5.539696 q 0,0.19637 0.0775,0.30489 0.0775,0.10335 0.22738,0.10335 h 0.50643 v 1.00252 z m -1.80867,-5.389833 h 2.41845 v 0.950843 h -2.41845 z" />
      <path
         id="path873"
         style="stroke-width:0.264583"
         d="m 149.98766,94.048694 h 1.0542 v 7.513726 h -1.0542 z m 3.2556,4.263292 q 0,-0.568438 -0.29455,-0.878496 -0.29456,-0.310058 -0.82682,-0.310058 -0.51676,0 -0.80098,0.268717 -0.27905,0.268716 -0.27905,0.759641 l -0.10852,-1.033525 q 0.24804,-0.475422 0.64595,-0.733803 0.40307,-0.263549 0.88883,-0.263549 0.87333,0 1.34875,0.573606 0.48059,0.568439 0.48059,1.6123 v 3.255601 h -1.0542 z" />
      <path
         id="path875"
         style="stroke-width:0.264583"
         d="m 155.89942,94.048694 h 1.05419 v 1.054196 h -1.05419 z m 0,2.149733 h 1.05419 v 5.363993 h -1.05419 z" />
      <path
         id="path877"
         style="stroke-width:0.264583"
         d="m 158.56591,96.198427 h 1.0542 v 5.363993 h -1.0542 z m 3.25561,2.113559 q 0,-0.568438 -0.29456,-0.878496 -0.29455,-0.310058 -0.82682,-0.310058 -0.51676,0 -0.80098,0.273885 -0.27905,0.273884 -0.27905,0.769976 l -0.10852,-1.033525 q 0.24805,-0.485757 0.64595,-0.749306 0.40308,-0.263549 0.88883,-0.263549 0.87333,0 1.34876,0.573606 0.48058,0.568439 0.48058,1.6123 v 3.255601 h -1.05419 z" />
      <path
         id="path879"
         style="stroke-width:0.264583"
         d="m 166.27601,103.74316 q -0.60461,0 -1.0852,-0.22737 -0.47542,-0.22221 -0.73897,-0.63045 v 0 l 0.71313,-0.64596 v 0 q 0.20671,0.28422 0.49093,0.43925 0.28939,0.15503 0.60461,0.15503 0.60461,0 0.93534,-0.3359 0.33073,-0.33072 0.33073,-0.9405 v -5.358833 h 1.0542 v 5.203803 q 0,0.73897 -0.27389,1.26607 -0.26872,0.52709 -0.78548,0.80098 -0.51676,0.27388 -1.2454,0.27388 z m -0.0982,-2.08772 q -0.58911,0 -1.00769,-0.25321 -0.41341,-0.25838 -0.63045,-0.74931 -0.21704,-0.49092 -0.21704,-1.178218 v -1.183386 q 0,-0.692462 0.21187,-1.183387 0.21188,-0.490924 0.61495,-0.744138 0.40824,-0.258381 0.97668,-0.258381 0.47542,0 0.86816,0.248046 0.39791,0.248046 0.64079,0.69763 l -0.10852,1.095536 q 0,-0.341063 -0.12402,-0.583941 -0.12403,-0.242879 -0.36174,-0.366902 -0.23254,-0.129191 -0.56844,-0.129191 -0.52193,0 -0.81131,0.325561 -0.28422,0.32556 -0.28422,0.91467 v 1.167883 q 0,0.583938 0.28422,0.904338 0.28938,0.31522 0.81131,0.31522 0.3359,0 0.56844,-0.12919 0.23771,-0.13436 0.36174,-0.3824 0.12402,-0.248049 0.12402,-0.59428 l 0.0724,1.13171 q -0.1602,0.39791 -0.5271,0.66662 -0.36174,0.26872 -0.894,0.26872 z" />
      <path
         id="path881"
         style="stroke-width:0.264583"
         d="m 174.43053,101.58826 q -0.65112,0 -0.95601,-0.35656 -0.29972,-0.36174 -0.29972,-1.06454 v -5.529356 h 1.0542 v 5.539696 q 0,0.19637 0.0775,0.30489 0.0775,0.10335 0.22738,0.10335 h 0.50642 v 1.00252 z m -1.80867,-5.389833 h 2.41845 v 0.950843 h -2.41845 z" />
      <path
         id="path883"
         style="stroke-width:0.264583"
         d="m 178.54396,101.63994 q -0.69763,0 -1.19372,-0.27389 -0.49609,-0.27388 -0.75964,-0.79581 -0.25838,-0.5271 -0.25838,-1.266069 v -0.873329 q 0,-0.728635 0.25838,-1.245398 0.26355,-0.52193 0.75964,-0.790647 0.49609,-0.273884 1.19372,-0.273884 0.69763,0 1.19372,0.273884 0.4961,0.268717 0.75448,0.790647 0.26355,0.516763 0.26355,1.245398 v 0.888832 q 0,0.733806 -0.26355,1.255736 -0.25838,0.51676 -0.75448,0.79064 -0.49609,0.27389 -1.19372,0.27389 z m 0,-1.00252 q 0.55294,0 0.85266,-0.34623 0.30489,-0.346233 0.30489,-0.971516 v -0.888832 q 0,-0.625283 -0.30489,-0.966346 -0.29972,-0.341064 -0.85266,-0.341064 -0.55293,0 -0.85782,0.341064 -0.29973,0.341063 -0.29973,0.966346 v 0.888832 q 0,0.625283 0.29973,0.971516 0.30489,0.34623 0.85782,0.34623 z" />
      <path
         id="path885"
         style="stroke-width:0.264583"
         d="m 187.00336,101.63994 q -0.47542,0 -0.89399,-0.093 -0.41341,-0.093 -0.77515,-0.27905 -0.36173,-0.18604 -0.66662,-0.46509 v 0 l 0.62528,-0.76997 v 0 q 0.43408,0.33072 0.86299,0.49609 0.42892,0.16536 0.84749,0.16536 0.62529,0 0.93535,-0.1912 0.31522,-0.19637 0.31522,-0.583942 0,-0.258381 -0.17053,-0.387572 -0.17053,-0.12919 -0.42375,-0.170531 -0.25321,-0.04651 -0.71313,-0.08268 -0.0413,0 -0.0879,0 -0.0465,-0.0052 -0.0879,-0.01034 -0.0207,0 -0.0413,0 -0.0207,-0.0052 -0.0413,-0.0052 -0.52193,-0.04134 -0.88366,-0.149861 -0.36174,-0.113688 -0.60462,-0.418578 -0.23771,-0.30489 -0.23771,-0.873329 0,-0.568439 0.23255,-0.945676 0.23254,-0.377237 0.69246,-0.563271 0.45992,-0.191202 1.15238,-0.191202 0.41858,0 0.79581,0.07751 0.38241,0.07752 0.72864,0.232543 0.34623,0.149861 0.66662,0.382405 v 0 l -0.63562,0.769976 v 0 q -0.40307,-0.258381 -0.79581,-0.387572 -0.38757,-0.129191 -0.75964,-0.129191 -0.53744,0 -0.80615,0.186035 -0.26872,0.180867 -0.26872,0.547768 0,0.217041 0.14986,0.325561 0.15503,0.10852 0.38757,0.144693 0.23255,0.03617 0.66146,0.06201 0.031,0.0052 0.062,0.0052 0.0362,0 0.0724,0.0052 0.0155,0 0.031,0 0.0155,0 0.031,0.0052 0.56327,0.03617 0.95601,0.149861 0.39791,0.113688 0.66663,0.449584 0.26871,0.335895 0.26871,0.971513 0,0.578776 -0.24804,0.961186 -0.24805,0.37723 -0.74931,0.56844 -0.49609,0.1912 -1.25057,0.1912 z" />
      <path
         id="path887"
         style="stroke-width:0.264583"
         d="m 192.80144,101.63994 q -0.74414,0 -1.27124,-0.27905 -0.52709,-0.27906 -0.80615,-0.81649 -0.27388,-0.5426 -0.27388,-1.307408 v -0.604613 q 0,-0.795814 0.26355,-1.359086 0.26871,-0.563271 0.77514,-0.857826 0.50643,-0.294554 1.21956,-0.294554 0.67179,0 1.14722,0.335895 0.47542,0.335896 0.72346,0.971514 0.25322,0.635618 0.25322,1.52445 v 0.351399 h -3.61734 V 98.45668 h 2.61482 v 0 q -0.0465,-0.656289 -0.34107,-1.018022 -0.28938,-0.366902 -0.78031,-0.366902 -0.59944,0 -0.93017,0.39274 -0.32556,0.392739 -0.32556,1.111039 v 0.682127 q 0,0.666624 0.3514,1.023188 0.3514,0.35657 0.99735,0.35657 0.32039,0 0.63562,-0.12919 0.31522,-0.12919 0.56327,-0.36174 v 0 l 0.69246,0.69247 v 0 q -0.39791,0.3824 -0.894,0.59427 -0.49609,0.20671 -0.99735,0.20671 z" />
      <path
         id="path889"
         style="stroke-width:0.264583"
         d="m 198.48583,101.63994 q -0.74414,0 -1.27124,-0.27905 -0.5271,-0.27906 -0.80615,-0.81649 -0.27388,-0.5426 -0.27388,-1.307408 v -0.604613 q 0,-0.795814 0.26355,-1.359086 0.26871,-0.563271 0.77514,-0.857826 0.50643,-0.294554 1.21956,-0.294554 0.67179,0 1.14721,0.335895 0.47542,0.335896 0.72347,0.971514 0.25321,0.635618 0.25321,1.52445 v 0.351399 h -3.61734 V 98.45668 h 2.61482 v 0 q -0.0465,-0.656289 -0.34106,-1.018022 -0.28939,-0.366902 -0.78031,-0.366902 -0.59945,0 -0.93017,0.39274 -0.32556,0.392739 -0.32556,1.111039 v 0.682127 q 0,0.666624 0.35139,1.023188 0.3514,0.35657 0.99736,0.35657 0.32039,0 0.63561,-0.12919 0.31523,-0.12919 0.56328,-0.36174 v 0 l 0.69246,0.69247 v 0 q -0.39791,0.3824 -0.894,0.59427 -0.49609,0.20671 -0.99735,0.20671 z" />
      <path
         id="path891"
         style="stroke-width:0.264583"
         d="m 204.82651,94.048694 h 1.0542 v 7.513726 h -1.0542 z m 3.25561,4.263292 q 0,-0.568438 -0.29456,-0.878496 -0.29455,-0.310058 -0.82682,-0.310058 -0.51676,0 -0.80098,0.268717 -0.27905,0.268716 -0.27905,0.759641 l -0.10852,-1.033525 q 0.24804,-0.475422 0.64595,-0.733803 0.40308,-0.263549 0.88883,-0.263549 0.87333,0 1.34875,0.573606 0.48059,0.568439 0.48059,1.6123 v 3.255601 h -1.05419 z" />
      <path
         id="path893"
         style="stroke-width:0.264583"
         d="m 212.93451,101.63994 q -0.74414,0 -1.27124,-0.27905 -0.52709,-0.27906 -0.80614,-0.81649 -0.27389,-0.5426 -0.27389,-1.307408 v -0.604613 q 0,-0.795814 0.26355,-1.359086 0.26872,-0.563271 0.77514,-0.857826 0.50643,-0.294554 1.21956,-0.294554 0.6718,0 1.14722,0.335895 0.47542,0.335896 0.72346,0.971514 0.25322,0.635618 0.25322,1.52445 v 0.351399 h -3.61734 V 98.45668 h 2.61482 v 0 q -0.0465,-0.656289 -0.34106,-1.018022 -0.28939,-0.366902 -0.78032,-0.366902 -0.59944,0 -0.93017,0.39274 -0.32556,0.392739 -0.32556,1.111039 v 0.682127 q 0,0.666624 0.3514,1.023188 0.3514,0.35657 0.99735,0.35657 0.32039,0 0.63562,-0.12919 0.31522,-0.12919 0.56327,-0.36174 v 0 l 0.69246,0.69247 v 0 q -0.3979,0.3824 -0.894,0.59427 -0.49609,0.20671 -0.99735,0.20671 z" />
      <path
         id="path895"
         style="stroke-width:0.264583"
         d="m 216.42267,96.198427 h 1.0542 v 5.363993 h -1.0542 z m 2.95072,1.271236 q -0.13953,-0.170531 -0.3514,-0.258381 -0.21187,-0.08785 -0.49093,-0.08785 -0.50126,0 -0.78031,0.279052 -0.27388,0.273884 -0.27388,0.764809 l -0.10852,-1.033525 q 0.24804,-0.48059 0.64078,-0.744139 0.39274,-0.268716 0.86816,-0.268716 0.36691,0 0.66146,0.10852 0.29972,0.103352 0.52193,0.310057 z" />
      <path
         id="path897"
         style="stroke-width:0.264583"
         d="m 223.04239,101.63994 q -0.74414,0 -1.27124,-0.27905 -0.52709,-0.27906 -0.80615,-0.81649 -0.27388,-0.5426 -0.27388,-1.307408 v -0.604613 q 0,-0.795814 0.26355,-1.359086 0.26872,-0.563271 0.77514,-0.857826 0.50643,-0.294554 1.21956,-0.294554 0.67179,0 1.14722,0.335895 0.47542,0.335896 0.72346,0.971514 0.25322,0.635618 0.25322,1.52445 v 0.351399 h -3.61734 V 98.45668 h 2.61482 v 0 q -0.0465,-0.656289 -0.34106,-1.018022 -0.28939,-0.366902 -0.78032,-0.366902 -0.59944,0 -0.93017,0.39274 -0.32556,0.392739 -0.32556,1.111039 v 0.682127 q 0,0.666624 0.3514,1.023188 0.3514,0.35657 0.99735,0.35657 0.32039,0 0.63562,-0.12919 0.31522,-0.12919 0.56327,-0.36174 v 0 l 0.69246,0.69247 v 0 q -0.39791,0.3824 -0.894,0.59427 -0.49609,0.20671 -0.99735,0.20671 z" />
      <path
         id="path899"
         style="stroke-width:0.264583"
         d="m 226.14297,100.45655 h 1.10588 v 1.10587 h -1.10588 z" />
    </g>
  </g>
</svg>
